<svg width="18" height="21" viewBox="0 0 18 21" fill="none" xmlns="http://www.w3.org/2000/svg">
<path d="M9.48965 4.84615C10.4326 4.84615 11.6146 4.20534 12.3186 3.35092C12.9561 2.5766 13.4209 1.49523 13.4209 0.413858C13.4209 0.267005 13.4076 0.120153 13.3811 0C12.3318 0.0400509 11.0701 0.707565 10.3131 1.60203C9.71543 2.2829 9.1709 3.35092 9.1709 4.44565C9.1709 4.60585 9.19746 4.76605 9.21074 4.81945C9.27715 4.8328 9.3834 4.84615 9.48965 4.84615ZM6.16934 21C7.45762 21 8.02871 20.1322 9.63574 20.1322C11.2693 20.1322 11.6279 20.9733 13.0623 20.9733C14.4701 20.9733 15.4131 19.665 16.3029 18.3833C17.299 16.9148 17.7107 15.473 17.7373 15.4062C17.6443 15.3795 14.9482 14.2715 14.9482 11.1608C14.9482 8.46408 17.0732 7.2492 17.1928 7.15575C15.785 5.12651 13.6467 5.07311 13.0623 5.07311C11.4818 5.07311 10.1936 6.03433 9.3834 6.03433C8.50684 6.03433 7.35137 5.12651 5.9834 5.12651C3.38027 5.12651 0.737305 7.28925 0.737305 11.3744C0.737305 13.911 1.72012 16.5944 2.92871 18.3299C3.96465 19.7985 4.86777 21 6.16934 21Z" fill="black"/>
</svg>
