<svg width="24" height="24" viewBox="0 0 24 24" fill="none" xmlns="http://www.w3.org/2000/svg">
<path fill-rule="evenodd" clip-rule="evenodd" d="M12 20C16.4183 20 20 16.4183 20 12C20 7.58172 16.4183 4 12 4C7.58172 4 4 7.58172 4 12C4 16.4183 7.58172 20 12 20ZM12 22C17.5228 22 22 17.5228 22 12C22 6.47715 17.5228 2 12 2C6.47715 2 2 6.47715 2 12C2 17.5228 6.47715 22 12 22Z" fill="url(#paint0_linear_353_418)"/>
<path fill-rule="evenodd" clip-rule="evenodd" d="M16.7071 8.79289C17.0976 9.18342 17.0976 9.81658 16.7071 10.2071L11.7071 15.2071C11.3166 15.5976 10.6834 15.5976 10.2929 15.2071L7.29289 12.2071C6.90237 11.8166 6.90237 11.1834 7.29289 10.7929C7.68342 10.4024 8.31658 10.4024 8.70711 10.7929L11 13.0858L15.2929 8.79289C15.6834 8.40237 16.3166 8.40237 16.7071 8.79289Z" fill="url(#paint1_linear_353_418)"/>
<defs>
<linearGradient id="paint0_linear_353_418" x1="2" y1="8.16667" x2="22.154" y2="8.39482" gradientUnits="userSpaceOnUse">
<stop stop-color="#FB5C66"/>
<stop offset="1" stop-color="#FA2330"/>
</linearGradient>
<linearGradient id="paint1_linear_353_418" x1="7" y1="10.6583" x2="17.0757" y2="10.8213" gradientUnits="userSpaceOnUse">
<stop stop-color="#FB5C66"/>
<stop offset="1" stop-color="#FA2330"/>
</linearGradient>
</defs>
</svg>
