<svg width="24" height="24" viewBox="0 0 24 24" fill="none" xmlns="http://www.w3.org/2000/svg">
<path d="M3.28585 12.1444L4.25189 11.886L3.28585 12.1444ZM12 21L11.6429 21.934C11.8728 22.022 12.1272 22.022 12.3571 21.934L12 21ZM7.19416 5.05992L7.34913 6.04784L7.19416 5.05992ZM12 8.60216L11.0187 8.79464C11.1107 9.26378 11.5219 9.60216 12 9.60216C12.4781 9.60216 12.8893 9.26378 12.9813 8.79464L12 8.60216ZM16.8058 5.05992L16.9608 4.072L16.8058 5.05992ZM20.7142 12.1444L19.7481 11.886L20.7142 12.1444ZM2.31981 12.4028C3.04079 15.0983 4.79349 17.2514 6.60843 18.8226C8.42433 20.3947 10.3782 21.4505 11.6429 21.934L12.3571 20.066C11.3057 19.6639 9.55395 18.7273 7.91747 17.3105C6.28004 15.893 4.83368 14.0611 4.25189 11.886L2.31981 12.4028ZM7.03919 4.072C5.96528 4.24046 4.42704 4.89862 3.32602 6.24476C2.18115 7.6445 1.59312 9.68596 2.31981 12.4028L4.25189 11.886C3.67581 9.73226 4.17341 8.36771 4.87414 7.51098C5.61871 6.60064 6.68601 6.15186 7.34913 6.04784L7.03919 4.072ZM12.9813 8.40968C12.7257 7.10678 12.0693 5.89676 11.0376 5.06795C9.98939 4.22592 8.61079 3.82547 7.03919 4.072L7.34913 6.04784C8.38307 5.88565 9.19026 6.14937 9.78504 6.62716C10.3963 7.11818 10.84 7.88364 11.0187 8.79464L12.9813 8.40968ZM12.9813 8.79464C13.16 7.88364 13.6037 7.11818 14.215 6.62716C14.8097 6.14937 15.6169 5.88565 16.6509 6.04784L16.9608 4.072C15.3892 3.82547 14.0106 4.22592 12.9624 5.06795C11.9307 5.89676 11.2743 7.10678 11.0187 8.40968L12.9813 8.79464ZM16.6509 6.04784C17.314 6.15186 18.3813 6.60064 19.1259 7.51098C19.8266 8.36771 20.3242 9.73226 19.7481 11.886L21.6802 12.4028C22.4069 9.68596 21.8188 7.6445 20.674 6.24476C19.573 4.89862 18.0347 4.24046 16.9608 4.072L16.6509 6.04784ZM19.7481 11.886C19.1663 14.0611 17.72 15.893 16.0825 17.3105C14.4461 18.7273 12.6943 19.6639 11.6429 20.066L12.3571 21.934C13.6218 21.4505 15.5757 20.3947 17.3916 18.8226C19.2065 17.2514 20.9592 15.0983 21.6802 12.4028L19.7481 11.886Z" fill="#111111"/>
</svg>
