<svg width="19" height="14" viewBox="0 0 19 14" fill="none" xmlns="http://www.w3.org/2000/svg">
<path fill-rule="evenodd" clip-rule="evenodd" d="M2 1.5C1.72386 1.5 1.5 1.72386 1.5 2C1.5 2.27614 1.72386 2.5 2 2.5C2.27614 2.5 2.5 2.27614 2.5 2C2.5 1.72386 2.27614 1.5 2 1.5ZM0.5 2C0.5 1.17157 1.17157 0.5 2 0.5C2.82843 0.5 3.5 1.17157 3.5 2C3.5 2.82843 2.82843 3.5 2 3.5C1.17157 3.5 0.5 2.82843 0.5 2Z" fill="#9CA3AF"/>
<path fill-rule="evenodd" clip-rule="evenodd" d="M2 6.5C1.72386 6.5 1.5 6.72386 1.5 7C1.5 7.27614 1.72386 7.5 2 7.5C2.27614 7.5 2.5 7.27614 2.5 7C2.5 6.72386 2.27614 6.5 2 6.5ZM0.5 7C0.5 6.17157 1.17157 5.5 2 5.5C2.82843 5.5 3.5 6.17157 3.5 7C3.5 7.82843 2.82843 8.5 2 8.5C1.17157 8.5 0.5 7.82843 0.5 7Z" fill="#9CA3AF"/>
<path fill-rule="evenodd" clip-rule="evenodd" d="M2 11.5C1.72386 11.5 1.5 11.7239 1.5 12C1.5 12.2761 1.72386 12.5 2 12.5C2.27614 12.5 2.5 12.2761 2.5 12C2.5 11.7239 2.27614 11.5 2 11.5ZM0.5 12C0.5 11.1716 1.17157 10.5 2 10.5C2.82843 10.5 3.5 11.1716 3.5 12C3.5 12.8284 2.82843 13.5 2 13.5C1.17157 13.5 0.5 12.8284 0.5 12Z" fill="#9CA3AF"/>
<path d="M5 2C5 1.44772 5.44772 1 6 1H14C14.5523 1 15 1.44772 15 2C15 2.55228 14.5523 3 14 3H6C5.44772 3 5 2.55228 5 2Z" fill="#9CA3AF"/>
<path d="M5 7C5 6.44772 5.44772 6 6 6H10C10.5523 6 11 6.44772 11 7C11 7.55228 10.5523 8 10 8H6C5.44772 8 5 7.55228 5 7Z" fill="#9CA3AF"/>
<path d="M5 12C5 11.4477 5.44772 11 6 11H18C18.5523 11 19 11.4477 19 12C19 12.5523 18.5523 13 18 13H6C5.44772 13 5 12.5523 5 12Z" fill="#9CA3AF"/>
</svg>
