<svg width="24" height="24" viewBox="0 0 24 24" fill="none" xmlns="http://www.w3.org/2000/svg">
<mask id="path-1-inside-1_252_285" fill="white">
<path fill-rule="evenodd" clip-rule="evenodd" d="M18 9C18 7.4087 17.3679 5.88258 16.2426 4.75736C15.1174 3.63214 13.5913 3 12 3C10.4087 3 8.88258 3.63214 7.75736 4.75736C6.63214 5.88258 6 7.4087 6 9V15L4.51823 17.2226C4.29672 17.5549 4.53491 18 4.93426 18H19.0657C19.4651 18 19.7033 17.5549 19.4818 17.2227L18 15V9Z"/>
</mask>
<path d="M16.2426 4.75736L14.8284 6.17157L14.8284 6.17157L16.2426 4.75736ZM7.75736 4.75736L6.34315 3.34315L6.34315 3.34315L7.75736 4.75736ZM6 9L4 9V9H6ZM6 15L7.6641 16.1094L8 15.6056V15H6ZM4.51823 17.2226L6.18233 18.3321L4.51823 17.2226ZM19.4818 17.2227L17.8177 18.3321L17.8177 18.3321L19.4818 17.2227ZM18 15H16V15.6056L16.3359 16.1094L18 15ZM14.8284 6.17157C15.5786 6.92172 16 7.93913 16 9H20C20 6.87827 19.1571 4.84344 17.6569 3.34315L14.8284 6.17157ZM12 5C13.0609 5 14.0783 5.42143 14.8284 6.17157L17.6569 3.34315C16.1566 1.84285 14.1217 1 12 1V5ZM9.17157 6.17157C9.92172 5.42143 10.9391 5 12 5V1C9.87827 1 7.84344 1.84285 6.34315 3.34315L9.17157 6.17157ZM8 9C8 7.93913 8.42143 6.92172 9.17157 6.17157L6.34315 3.34315C4.84286 4.84344 4 6.87827 4 9L8 9ZM8 15V9H4V15H8ZM6.18233 18.3321L7.6641 16.1094L4.3359 13.8906L2.85413 16.1132L6.18233 18.3321ZM4.93426 16C6.1323 16 6.84689 17.3352 6.18233 18.3321L2.85413 16.1132C1.74654 17.7746 2.93752 20 4.93426 20V16ZM19.0657 16H4.93426V20H19.0657V16ZM17.8177 18.3321C17.1531 17.3352 17.8677 16 19.0657 16V20C21.0625 20 22.2535 17.7746 21.1459 16.1132L17.8177 18.3321ZM16.3359 16.1094L17.8177 18.3321L21.1459 16.1133L19.6641 13.8906L16.3359 16.1094ZM16 9V15H20V9H16Z" fill="#111111" mask="url(#path-1-inside-1_252_285)"/>
<path d="M15 19C15 19.7956 14.6839 20.5587 14.1213 21.1213C13.5587 21.6839 12.7956 22 12 22C11.2044 22 10.4413 21.6839 9.87868 21.1213C9.31607 20.5587 9 19.7956 9 19L12 19H15Z" fill="#111111"/>
<circle cx="12" cy="3" r="1" fill="#111111"/>
</svg>
