<svg width="26" height="20" viewBox="0 0 26 20" fill="none" xmlns="http://www.w3.org/2000/svg">
<path d="M18.4484 11.3182C20.0467 12.4032 21.1667 13.8732 21.1667 15.8332V19.3332H25.8334V15.8332C25.8334 13.2898 21.6684 11.7848 18.4484 11.3182Z" fill="#999999"/>
<path d="M16.5001 9.99984C19.0784 9.99984 21.1667 7.9115 21.1667 5.33317C21.1667 2.75484 19.0784 0.666504 16.5001 0.666504C15.9517 0.666504 15.4384 0.78317 14.9484 0.946504C15.9167 2.14817 16.5001 3.6765 16.5001 5.33317C16.5001 6.98984 15.9167 8.51817 14.9484 9.71984C15.4384 9.88317 15.9517 9.99984 16.5001 9.99984Z" fill="#999999"/>
<path d="M9.50008 9.99984C12.0784 9.99984 14.1667 7.9115 14.1667 5.33317C14.1667 2.75484 12.0784 0.666504 9.50008 0.666504C6.92175 0.666504 4.83342 2.75484 4.83342 5.33317C4.83342 7.9115 6.92175 9.99984 9.50008 9.99984ZM9.50008 2.99984C10.7834 2.99984 11.8334 4.04984 11.8334 5.33317C11.8334 6.6165 10.7834 7.6665 9.50008 7.6665C8.21675 7.6665 7.16675 6.6165 7.16675 5.33317C7.16675 4.04984 8.21675 2.99984 9.50008 2.99984Z" fill="#999999"/>
<path d="M9.50008 11.1665C6.38508 11.1665 0.166748 12.7298 0.166748 15.8332V19.3332H18.8334V15.8332C18.8334 12.7298 12.6151 11.1665 9.50008 11.1665ZM16.5001 16.9998H2.50008V15.8448C2.73341 15.0048 6.35008 13.4998 9.50008 13.4998C12.6501 13.4998 16.2667 15.0048 16.5001 15.8332V16.9998Z" fill="#999999"/>
</svg>
