<svg width="20" height="20" viewBox="0 0 20 20" fill="none" xmlns="http://www.w3.org/2000/svg">
<path d="M10.0001 2.99984C11.2834 2.99984 12.3334 4.04984 12.3334 5.33317C12.3334 6.6165 11.2834 7.6665 10.0001 7.6665C8.71675 7.6665 7.66675 6.6165 7.66675 5.33317C7.66675 4.04984 8.71675 2.99984 10.0001 2.99984ZM10.0001 13.4998C13.1501 13.4998 16.7667 15.0048 17.0001 15.8332V16.9998H3.00008V15.8448C3.23341 15.0048 6.85008 13.4998 10.0001 13.4998ZM10.0001 0.666504C7.42175 0.666504 5.33342 2.75484 5.33342 5.33317C5.33342 7.9115 7.42175 9.99984 10.0001 9.99984C12.5784 9.99984 14.6667 7.9115 14.6667 5.33317C14.6667 2.75484 12.5784 0.666504 10.0001 0.666504ZM10.0001 11.1665C6.88508 11.1665 0.666748 12.7298 0.666748 15.8332V19.3332H19.3334V15.8332C19.3334 12.7298 13.1151 11.1665 10.0001 11.1665Z" fill="#999999"/>
</svg>
