<svg width="18" height="20" viewBox="0 0 18 20" fill="none" xmlns="http://www.w3.org/2000/svg">
<path fill-rule="evenodd" clip-rule="evenodd" d="M10.5488 0.872597H13.1467C13.3971 2.18262 14.1996 3.30671 15.3114 4.00902C15.3118 4.00947 15.3122 4.00992 15.3125 4.01037C16.0865 4.49908 17.0093 4.78421 17.9999 4.78421V5.54962L18 8.22207C16.1599 8.22207 14.4548 7.6517 13.063 6.68372V13.6713C13.063 17.161 10.133 20 6.53139 20C5.13973 20 3.84915 19.5747 2.78831 18.853C2.78774 18.8524 2.78717 18.8517 2.78649 18.8512C1.10316 17.7052 0 15.811 0 13.6706C0 10.181 2.93 7.34183 6.53161 7.34183C6.83043 7.34183 7.12335 7.36567 7.41174 7.40358V8.21814L7.41162 10.9144C7.133 10.83 6.83849 10.7808 6.53139 10.7808C4.88663 10.7808 3.54852 12.0776 3.54852 13.6713C3.54852 14.7811 4.19834 15.7453 5.14778 16.2294C5.56175 16.4406 6.03199 16.5616 6.53127 16.5616C8.13814 16.5616 9.44891 15.3231 9.50858 13.78L9.51426 0H13.0629C13.0629 0.298064 13.0926 0.58938 13.1467 0.872597H10.5488Z" fill="#111111"/>
</svg>
