<svg width="32" height="32" viewBox="0 0 32 32" fill="none" xmlns="http://www.w3.org/2000/svg">
<mask id="mask0_1774_228" style="mask-type:alpha" maskUnits="userSpaceOnUse" x="0" y="0" width="32" height="32">
<rect width="32" height="32" fill="#D9D9D9"/>
</mask>
<g mask="url(#mask0_1774_228)">
<path d="M14.666 17.3332V21.3332C14.666 21.7109 14.7938 22.0276 15.0493 22.2832C15.3049 22.5387 15.6216 22.6665 15.9993 22.6665C16.3771 22.6665 16.6938 22.5387 16.9494 22.2832C17.2049 22.0276 17.3327 21.7109 17.3327 21.3332V17.3332H21.3327C21.7105 17.3332 22.0271 17.2054 22.2827 16.9498C22.5382 16.6943 22.666 16.3776 22.666 15.9998C22.666 15.6221 22.5382 15.3054 22.2827 15.0498C22.0271 14.7943 21.7105 14.6665 21.3327 14.6665H17.3327V10.6665C17.3327 10.2887 17.2049 9.97206 16.9494 9.7165C16.6938 9.46095 16.3771 9.33317 15.9993 9.33317C15.6216 9.33317 15.3049 9.46095 15.0493 9.7165C14.7938 9.97206 14.666 10.2887 14.666 10.6665V14.6665H10.666C10.2882 14.6665 9.97157 14.7943 9.71602 15.0498C9.46046 15.3054 9.33268 15.6221 9.33268 15.9998C9.33268 16.3776 9.46046 16.6943 9.71602 16.9498C9.97157 17.2054 10.2882 17.3332 10.666 17.3332H14.666ZM15.9993 29.3332C14.1549 29.3332 12.4216 28.9832 10.7993 28.2832C9.17713 27.5832 7.76602 26.6332 6.56602 25.4332C5.36602 24.2332 4.41602 22.8221 3.71602 21.1998C3.01602 19.5776 2.66602 17.8443 2.66602 15.9998C2.66602 14.1554 3.01602 12.4221 3.71602 10.7998C4.41602 9.17762 5.36602 7.7665 6.56602 6.5665C7.76602 5.3665 9.17713 4.4165 10.7993 3.7165C12.4216 3.0165 14.1549 2.6665 15.9993 2.6665C17.8438 2.6665 19.5771 3.0165 21.1994 3.7165C22.8216 4.4165 24.2327 5.3665 25.4327 6.5665C26.6327 7.7665 27.5827 9.17762 28.2827 10.7998C28.9827 12.4221 29.3327 14.1554 29.3327 15.9998C29.3327 17.8443 28.9827 19.5776 28.2827 21.1998C27.5827 22.8221 26.6327 24.2332 25.4327 25.4332C24.2327 26.6332 22.8216 27.5832 21.1994 28.2832C19.5771 28.9832 17.8438 29.3332 15.9993 29.3332ZM15.9993 26.6665C18.9771 26.6665 21.4993 25.6332 23.566 23.5665C25.6327 21.4998 26.666 18.9776 26.666 15.9998C26.666 13.0221 25.6327 10.4998 23.566 8.43317C21.4993 6.3665 18.9771 5.33317 15.9993 5.33317C13.0216 5.33317 10.4993 6.3665 8.43268 8.43317C6.36602 10.4998 5.33268 13.0221 5.33268 15.9998C5.33268 18.9776 6.36602 21.4998 8.43268 23.5665C10.4993 25.6332 13.0216 26.6665 15.9993 26.6665Z" fill="#9CA3AF"/>
</g>
</svg>
