<svg width="32" height="32" viewBox="0 0 32 32" fill="none" xmlns="http://www.w3.org/2000/svg">
<mask id="mask0_435_525" style="mask-type:alpha" maskUnits="userSpaceOnUse" x="0" y="0" width="32" height="32">
<rect width="32" height="32" fill="#D9D9D9"/>
</mask>
<g mask="url(#mask0_435_525)">
<path d="M14.6666 17.3333V21.3333C14.6666 21.7111 14.7944 22.0278 15.05 22.2833C15.3055 22.5389 15.6222 22.6667 16 22.6667C16.3777 22.6667 16.6944 22.5389 16.95 22.2833C17.2055 22.0278 17.3333 21.7111 17.3333 21.3333V17.3333H21.3333C21.7111 17.3333 22.0277 17.2056 22.2833 16.95C22.5388 16.6944 22.6666 16.3778 22.6666 16C22.6666 15.6222 22.5388 15.3056 22.2833 15.05C22.0277 14.7944 21.7111 14.6667 21.3333 14.6667H17.3333V10.6667C17.3333 10.2889 17.2055 9.97222 16.95 9.71667C16.6944 9.46111 16.3777 9.33333 16 9.33333C15.6222 9.33333 15.3055 9.46111 15.05 9.71667C14.7944 9.97222 14.6666 10.2889 14.6666 10.6667V14.6667H10.6666C10.2888 14.6667 9.97218 14.7944 9.71663 15.05C9.46107 15.3056 9.33329 15.6222 9.33329 16C9.33329 16.3778 9.46107 16.6944 9.71663 16.95C9.97218 17.2056 10.2888 17.3333 10.6666 17.3333H14.6666ZM16 29.3333C14.1555 29.3333 12.4222 28.9833 10.8 28.2833C9.17774 27.5833 7.76663 26.6333 6.56663 25.4333C5.36663 24.2333 4.41663 22.8222 3.71663 21.2C3.01663 19.5778 2.66663 17.8444 2.66663 16C2.66663 14.1556 3.01663 12.4222 3.71663 10.8C4.41663 9.17778 5.36663 7.76667 6.56663 6.56667C7.76663 5.36667 9.17774 4.41667 10.8 3.71667C12.4222 3.01667 14.1555 2.66667 16 2.66667C17.8444 2.66667 19.5777 3.01667 21.2 3.71667C22.8222 4.41667 24.2333 5.36667 25.4333 6.56667C26.6333 7.76667 27.5833 9.17778 28.2833 10.8C28.9833 12.4222 29.3333 14.1556 29.3333 16C29.3333 17.8444 28.9833 19.5778 28.2833 21.2C27.5833 22.8222 26.6333 24.2333 25.4333 25.4333C24.2333 26.6333 22.8222 27.5833 21.2 28.2833C19.5777 28.9833 17.8444 29.3333 16 29.3333ZM16 26.6667C18.9777 26.6667 21.5 25.6333 23.5666 23.5667C25.6333 21.5 26.6666 18.9778 26.6666 16C26.6666 13.0222 25.6333 10.5 23.5666 8.43333C21.5 6.36667 18.9777 5.33333 16 5.33333C13.0222 5.33333 10.5 6.36667 8.43329 8.43333C6.36663 10.5 5.33329 13.0222 5.33329 16C5.33329 18.9778 6.36663 21.5 8.43329 23.5667C10.5 25.6333 13.0222 26.6667 16 26.6667Z" fill="#666666"/>
</g>
</svg>
