<svg width="20" height="20" viewBox="0 0 20 20" fill="none" xmlns="http://www.w3.org/2000/svg">
<path fill-rule="evenodd" clip-rule="evenodd" d="M5.75245 5.75732C5.36192 6.14784 5.36192 6.78101 5.75245 7.17153L8.58098 10.0001L5.75252 12.8285C5.36199 13.2191 5.36199 13.8522 5.75252 14.2428C6.14304 14.6333 6.77621 14.6333 7.16673 14.2428L9.9952 11.4143L12.8235 14.2426C13.214 14.6331 13.8472 14.6331 14.2377 14.2426C14.6283 13.8521 14.6283 13.2189 14.2377 12.8284L11.4094 10.0001L14.2378 7.17168C14.6283 6.78116 14.6283 6.14799 14.2378 5.75747C13.8473 5.36695 13.2141 5.36695 12.8236 5.75747L9.9952 8.58586L7.16666 5.75732C6.77614 5.36679 6.14297 5.36679 5.75245 5.75732Z" fill="#E91414"/>
</svg>
