<svg width="40" height="28" viewBox="0 0 40 28" fill="none" xmlns="http://www.w3.org/2000/svg">
<g clip-path="url(#clip0_1770_1852)">
<path d="M39.1636 4.37161C38.9375 3.52613 38.4918 2.75448 37.8712 2.1339C37.2506 1.51333 36.4768 1.06558 35.6273 0.835484C32.5 0 20 0 20 0C20 0 7.5 0 4.37273 0.835484C3.52322 1.06558 2.74943 1.51333 2.12881 2.1339C1.50819 2.75448 1.06251 3.52613 0.836364 4.37161C0 7.49226 0 14 0 14C0 14 0 20.5077 0.836364 23.6284C1.06251 24.4739 1.50819 25.2455 2.12881 25.8661C2.74943 26.4867 3.52322 26.9344 4.37273 27.1645C7.5 28 20 28 20 28C20 28 32.5 28 35.6273 27.1645C36.4768 26.9344 37.2506 26.4867 37.8712 25.8661C38.4918 25.2455 38.9375 24.4739 39.1636 23.6284C40 20.5077 40 14 40 14C40 14 40 7.49226 39.1636 4.37161Z" fill="#FF0000"/>
<path d="M15.9091 19.9094L26.3636 14L15.9091 8.09065V19.9094Z" fill="white"/>
</g>
<defs>
<clipPath id="clip0_1770_1852">
<rect width="40" height="28" fill="white"/>
</clipPath>
</defs>
</svg>
